<svg width="50" height="52" viewBox="0 0 50 52" fill="none" xmlns="http://www.w3.org/2000/svg">
<rect y="1" width="50" height="50" rx="25" fill="#282828"/>
<path d="M11.66 30.8V27.34H8.2V25.24H11.66V21.8H13.76V25.24H17.2V27.34H13.76V30.8H11.66ZM23.4862 33.8C22.7596 33.8 22.0762 33.65 21.4362 33.35C20.8029 33.05 20.2562 32.6333 19.7962 32.1C19.3362 31.5667 19.0062 30.9467 18.8062 30.24L21.4262 29.54C21.5129 29.88 21.6662 30.1733 21.8862 30.42C22.1129 30.6667 22.3729 30.86 22.6662 31C22.9662 31.1333 23.2729 31.2 23.5862 31.2C23.9996 31.2 24.3763 31.1 24.7163 30.9C25.0629 30.7 25.3363 30.43 25.5363 30.09C25.7429 29.75 25.8462 29.3733 25.8462 28.96C25.8462 28.5467 25.7429 28.17 25.5363 27.83C25.3363 27.49 25.0629 27.22 24.7163 27.02C24.3763 26.82 23.9996 26.72 23.5862 26.72C23.0796 26.72 22.6662 26.8067 22.3462 26.98C22.0262 27.1467 21.7862 27.3067 21.6262 27.46L19.3262 26.76L19.7662 19.1H27.6263V21.64H21.2662L22.2262 20.74L21.9262 25.68L21.4662 25.12C21.8262 24.8267 22.2362 24.6133 22.6962 24.48C23.1562 24.3467 23.5862 24.28 23.9862 24.28C24.8929 24.28 25.6896 24.4833 26.3763 24.89C27.0696 25.29 27.6096 25.8433 27.9963 26.55C28.3896 27.25 28.5863 28.0533 28.5863 28.96C28.5863 29.8667 28.3496 30.6867 27.8763 31.42C27.4029 32.1467 26.7796 32.7267 26.0063 33.16C25.2329 33.5867 24.3929 33.8 23.4862 33.8ZM35.7236 33.8C34.6569 33.8 33.7236 33.5767 32.9236 33.13C32.1236 32.6833 31.5003 32.06 31.0536 31.26C30.6069 30.46 30.3836 29.5267 30.3836 28.46V24.14C30.3836 23.0733 30.6069 22.14 31.0536 21.34C31.5003 20.54 32.1236 19.9167 32.9236 19.47C33.7236 19.0233 34.6569 18.8 35.7236 18.8C36.7903 18.8 37.7236 19.0233 38.5236 19.47C39.3236 19.9167 39.9469 20.54 40.3936 21.34C40.8403 22.14 41.0636 23.0733 41.0636 24.14V28.46C41.0636 29.5267 40.8403 30.46 40.3936 31.26C39.9469 32.06 39.3236 32.6833 38.5236 33.13C37.7236 33.5767 36.7903 33.8 35.7236 33.8ZM35.7236 31.22C36.2036 31.22 36.6369 31.1067 37.0236 30.88C37.4103 30.6533 37.7169 30.3467 37.9436 29.96C38.1703 29.5733 38.2836 29.14 38.2836 28.66V23.92C38.2836 23.44 38.1703 23.0067 37.9436 22.62C37.7169 22.2333 37.4103 21.9267 37.0236 21.7C36.6369 21.4733 36.2036 21.36 35.7236 21.36C35.2436 21.36 34.8103 21.4733 34.4236 21.7C34.0369 21.9267 33.7303 22.2333 33.5036 22.62C33.2769 23.0067 33.1636 23.44 33.1636 23.92V28.66C33.1636 29.14 33.2769 29.5733 33.5036 29.96C33.7303 30.3467 34.0369 30.6533 34.4236 30.88C34.8103 31.1067 35.2436 31.22 35.7236 31.22Z" fill="url(#paint0_linear_31_140)"/>
<defs>
<linearGradient id="paint0_linear_31_140" x1="25" y1="12.5" x2="25" y2="39.5" gradientUnits="userSpaceOnUse">
<stop stop-color="white"/>
<stop offset="1" stop-color="#BBBBBB"/>
</linearGradient>
</defs>
</svg>
